<svg width="107" height="100" viewBox="0 0 107 100" fill="none" xmlns="http://www.w3.org/2000/svg">
<path d="M97.2326 15.2364C92.7523 11.3761 87.2255 8.62958 81.2512 6.73664C80.5791 6.36589 79.9071 5.92055 79.235 5.54863C65.5307 -1.42898 50.5571 -1.54034 37.601 3.61799C25.5779 5.02868 12.9186 8.66623 6.08582 18.5018C0.484268 26.5193 1.19433 37.023 4.40568 46.674V46.7107C4.25672 47.0815 4.10661 47.4534 3.95765 47.8241C3.73363 48.1949 3.58468 48.6035 3.47267 49.0489C1.23249 54.9131 0.112447 61.0001 0.000410375 67.3474C-0.0365411 69.7601 2.42765 70.6875 5.07902 70.5027C5.37809 71.7641 5.67601 73.0267 6.08712 74.2515C10.9035 88.9872 23.1519 98.3776 38.6103 99.825C51.7917 101.05 63.3297 95.7421 71.2075 87.1313C84.9857 81.8603 96.7859 71.2455 102.909 57.1769C108.845 43.5558 109.406 25.7386 97.2323 15.2366L97.2326 15.2364ZM46.2631 10.8563C55.1498 10.4856 65.493 11.0423 74.6419 13.8623C84.3128 19.9872 91.0714 30.3049 91.5195 42.4421C91.8925 51.9818 88.4954 62.0033 82.1466 69.2037C81.5865 69.835 80.9895 70.3538 80.3914 70.9484C83.1177 61.7428 82.6316 51.4618 77.7401 41.9601C70.9064 28.6349 56.0079 17.686 40.5492 18.1312C35.6207 18.2792 30.9521 19.6899 26.6208 21.9547C30.1681 17.5012 34.4625 13.8258 39.466 11.3396C41.8563 11.079 44.1716 10.9309 46.2627 10.8563H46.2631ZM51.2667 78.8929C39.3174 76.4801 29.3107 68.6853 22.7389 58.6268C21.3197 56.4734 19.8636 53.9505 18.5196 51.2404C19.5277 49.1617 19.1547 46.7123 16.8026 45.1535C19.0808 40.8481 22.0302 36.9132 25.6144 33.5731C29.5349 29.9356 34.5762 26.15 40.1769 26.1121C46.5627 26.0754 52.9852 29.7496 57.6895 33.7579C66.0914 40.9215 71.5798 51.9086 70.8339 63.0435C70.461 68.4623 68.7058 73.9927 65.7553 78.7436C61.0879 79.7835 56.1581 79.8582 51.2667 78.8929ZM25.6513 85.3148C24.1201 83.942 22.8129 82.3821 21.6558 80.712C24.5311 82.8653 27.6304 84.7204 30.8416 86.2054C37.3761 89.2115 44.2101 90.6222 51.0056 90.7703C42.4166 93.5171 32.4099 91.2903 25.651 85.3148H25.6513Z" fill="#FFC803"/>
</svg>
